<svg width="213" height="84" viewBox="0 0 213 84" fill="none" xmlns="http://www.w3.org/2000/svg">
<path d="M0 8.4C0 3.76081 3.74366 0 8.3617 0H83.617C88.235 0 91.9787 3.76081 91.9787 8.4V75.6C91.9787 80.2392 88.235 84 83.617 84H8.3617C3.74366 84 0 80.2392 0 75.6V8.4Z" fill="black"/>
<path d="M127.53 19.4722L110.039 67.2H105.597L124.684 16.4391H127.773L127.53 19.4722ZM143.425 67.2L125.899 19.4722L125.656 16.4391H128.745L147.867 67.2H143.425ZM140.301 49.2803V52.9758H113.475V49.2803H140.301Z" fill="black"/>
<path d="M171.792 64.3063C173.55 64.3063 175.193 63.981 176.72 63.3302C178.27 62.6562 179.543 61.6684 180.538 60.3668C181.556 59.042 182.134 57.4267 182.273 55.5208H186.229C186.113 57.9147 185.385 60.053 184.043 61.9356C182.724 63.795 180.989 65.2593 178.837 66.3284C176.709 67.3743 174.36 67.8973 171.792 67.8973C169.178 67.8973 166.864 67.4208 164.851 66.4679C162.861 65.5149 161.196 64.1901 159.854 62.4935C158.512 60.7735 157.494 58.7747 156.8 56.497C156.129 54.196 155.793 51.7207 155.793 49.0711V47.6068C155.793 44.9572 156.129 42.4936 156.8 40.2158C157.494 37.9148 158.512 35.916 159.854 34.2193C161.196 32.4994 162.861 31.163 164.851 30.2101C166.841 29.2571 169.143 28.7807 171.757 28.7807C174.441 28.7807 176.847 29.3269 178.976 30.4192C181.128 31.5116 182.84 33.0572 184.112 35.0561C185.408 37.0549 186.113 39.4256 186.229 42.1682H182.273C182.157 40.1461 181.625 38.4029 180.676 36.9387C179.728 35.4744 178.478 34.3472 176.928 33.5569C175.378 32.7667 173.655 32.3716 171.757 32.3716C169.629 32.3716 167.813 32.7899 166.309 33.6267C164.805 34.4401 163.579 35.5674 162.63 37.0084C161.705 38.4262 161.022 40.0531 160.583 41.8893C160.143 43.7021 159.923 45.608 159.923 47.6068V49.0711C159.923 51.0932 160.131 53.0223 160.548 54.8584C160.987 56.6713 161.67 58.2866 162.595 59.7044C163.544 61.1222 164.77 62.2494 166.274 63.0861C167.801 63.8996 169.64 64.3063 171.792 64.3063Z" fill="black"/>
<path d="M212.341 29.4779V32.8945H193.531V29.4779H212.341ZM200.437 19.7859H204.567V58.031C204.567 59.7741 204.798 61.0873 205.261 61.9705C205.724 62.8537 206.325 63.4464 207.066 63.7485C207.806 64.0507 208.604 64.2018 209.46 64.2018C210.085 64.2018 210.686 64.1669 211.265 64.0972C211.843 64.0042 212.364 63.9112 212.826 63.8183L213 67.3394C212.491 67.5021 211.832 67.63 211.022 67.7229C210.212 67.8392 209.402 67.8973 208.593 67.8973C206.996 67.8973 205.585 67.6067 204.359 67.0257C203.132 66.4214 202.172 65.3987 201.478 63.9577C200.784 62.4935 200.437 60.5062 200.437 57.9961V19.7859Z" fill="black"/>
<path d="M43.5396 19.425H52.5219V51.1547C52.5219 54.8078 51.738 57.8812 50.1702 60.375C48.6024 62.8469 46.4684 64.7172 43.7683 65.9859C41.0681 67.2328 37.9978 67.8562 34.5573 67.8562C31.0733 67.8562 27.9703 67.2328 25.2484 65.9859C22.5265 64.7172 20.3925 62.8469 18.8465 60.375C17.3004 57.8812 16.5274 54.8078 16.5274 51.1547V19.425H25.5097V51.1547C25.5097 53.3859 25.8799 55.2125 26.6203 56.6344C27.3606 58.0344 28.4058 59.0734 29.7559 59.7516C31.106 60.4297 32.7064 60.7687 34.5573 60.7687C36.43 60.7687 38.0305 60.4297 39.3588 59.7516C40.7088 59.0734 41.7432 58.0344 42.4618 56.6344C43.1803 55.2125 43.5396 53.3859 43.5396 51.1547V19.425Z" fill="white"/>
<path d="M73.9618 19.425V67.2H64.9795V19.425H73.9618Z" fill="white"/>
</svg>
