<svg width="216" height="84" viewBox="0 0 216 84" fill="none" xmlns="http://www.w3.org/2000/svg">
<path d="M0 8.4C0 3.76081 3.79639 0 8.47947 0H84.7947C89.4778 0 93.2742 3.76081 93.2742 8.4V75.6C93.2742 80.2392 89.4778 84 84.7947 84H8.47947C3.79639 84 0 80.2392 0 75.6V8.4Z" fill="#707070"/>
<path d="M129.326 19.4722L111.589 67.2H107.084L126.441 16.4391H129.573L129.326 19.4722ZM145.445 67.2L127.672 19.4722L127.426 16.4391H130.558L149.95 67.2H145.445ZM142.277 49.2803V52.9758H115.073V49.2803H142.277Z" fill="#707070"/>
<path d="M174.212 64.3063C175.995 64.3063 177.661 63.981 179.209 63.3302C180.781 62.6561 182.071 61.6684 183.08 60.3668C184.113 59.042 184.699 57.4267 184.84 55.5208H188.852C188.735 57.9147 187.996 60.053 186.635 61.9356C185.298 63.795 183.538 65.2593 181.356 66.3284C179.197 67.3743 176.816 67.8973 174.212 67.8973C171.56 67.8973 169.214 67.4208 167.173 66.4679C165.155 65.5149 163.466 64.1901 162.105 62.4935C160.744 60.7735 159.712 58.7747 159.008 56.497C158.328 54.196 157.988 51.7207 157.988 49.0711V47.6068C157.988 44.9572 158.328 42.4936 159.008 40.2158C159.712 37.9148 160.744 35.916 162.105 34.2193C163.466 32.4994 165.155 31.163 167.173 30.2101C169.191 29.2571 171.525 28.7807 174.176 28.7807C176.898 28.7807 179.338 29.3269 181.497 30.4192C183.679 31.5116 185.415 33.0572 186.705 35.0561C188.019 37.0549 188.735 39.4256 188.852 42.1682H184.84C184.723 40.1461 184.183 38.4029 183.221 36.9387C182.259 35.4744 180.992 34.3472 179.42 33.5569C177.848 32.7667 176.1 32.3716 174.176 32.3716C172.018 32.3716 170.176 32.7899 168.651 33.6267C167.126 34.4401 165.883 35.5674 164.921 37.0084C163.982 38.4262 163.29 40.0531 162.844 41.8893C162.399 43.7021 162.176 45.608 162.176 47.6068V49.0711C162.176 51.0932 162.387 53.0223 162.809 54.8584C163.255 56.6713 163.947 58.2866 164.886 59.7044C165.847 61.1222 167.091 62.2494 168.616 63.0861C170.164 63.8996 172.03 64.3063 174.212 64.3063Z" fill="#707070"/>
<path d="M215.331 29.4779V32.8945H196.257V29.4779H215.331ZM203.26 19.7859H207.448V58.031C207.448 59.7741 207.683 61.0873 208.152 61.9705C208.621 62.8537 209.231 63.4464 209.982 63.7485C210.733 64.0507 211.542 64.2018 212.41 64.2018C213.044 64.2018 213.654 64.1669 214.24 64.0972C214.827 64.0042 215.355 63.9112 215.824 63.8183L216 67.3395C215.484 67.5021 214.815 67.63 213.994 67.7229C213.173 67.8392 212.352 67.8973 211.53 67.8973C209.912 67.8973 208.48 67.6067 207.237 67.0257C205.993 66.4214 205.02 65.3987 204.316 63.9577C203.612 62.4935 203.26 60.5062 203.26 57.9961V19.7859Z" fill="#707070"/>
<path d="M44.1529 19.425H53.2617V51.1547C53.2617 54.8078 52.4667 57.8812 50.8768 60.375C49.2869 62.8469 47.1229 64.7172 44.3847 65.9859C41.6466 67.2328 38.533 67.8562 35.0441 67.8562C31.5109 67.8562 28.3643 67.2328 25.604 65.9859C22.8438 64.7172 20.6797 62.8469 19.1119 60.375C17.5441 57.8812 16.7602 54.8078 16.7602 51.1547V19.425H25.869V51.1547C25.869 53.3859 26.2444 55.2125 26.9952 56.6344C27.746 58.0344 28.8059 59.0734 30.175 59.7516C31.5441 60.4297 33.1671 60.7687 35.0441 60.7687C36.9431 60.7687 38.5661 60.4297 39.9131 59.7516C41.2822 59.0734 42.3311 58.0344 43.0598 56.6344C43.7885 55.2125 44.1529 53.3859 44.1529 51.1547V19.425Z" fill="white"/>
<path d="M75.0036 19.425V67.2H65.8948V19.425H75.0036Z" fill="white"/>
</svg>
